<?xml version="1.0" encoding="UTF-8" standalone="no"?>
<!-- Created with Inkscape (http://www.inkscape.org/) -->

<svg
   xmlns:dc="http://purl.org/dc/elements/1.1/"
   xmlns:cc="http://creativecommons.org/ns#"
   xmlns:rdf="http://www.w3.org/1999/02/22-rdf-syntax-ns#"
   xmlns:svg="http://www.w3.org/2000/svg"
   xmlns="http://www.w3.org/2000/svg"
   xmlns:sodipodi="http://sodipodi.sourceforge.net/DTD/sodipodi-0.dtd"
   xmlns:inkscape="http://www.inkscape.org/namespaces/inkscape"
   id="svg3039"
   version="1.1"
   inkscape:version="0.48.4 r"
   width="555"
   height="410"
   sodipodi:docname="Screen Shot 2014-04-19 at 19.29.53.png">
  <metadata
     id="metadata3045">
    <rdf:RDF>
      <cc:Work
         rdf:about="">
        <dc:format>image/svg+xml</dc:format>
        <dc:type
           rdf:resource="http://purl.org/dc/dcmitype/StillImage" />
        <dc:title></dc:title>
      </cc:Work>
    </rdf:RDF>
  </metadata>
  <defs
     id="defs3043" />
  <sodipodi:namedview
     pagecolor="#ffffff"
     bordercolor="#666666"
     borderopacity="1"
     objecttolerance="10"
     gridtolerance="10"
     guidetolerance="10"
     inkscape:pageopacity="0"
     inkscape:pageshadow="2"
     inkscape:window-width="1067"
     inkscape:window-height="758"
     id="namedview3041"
     showgrid="false"
     inkscape:zoom="1.1"
     inkscape:cx="293.92445"
     inkscape:cy="234.14471"
     inkscape:window-x="78"
     inkscape:window-y="0"
     inkscape:window-maximized="0"
     inkscape:current-layer="svg3039" />
  <path
     style="fill:#696969"
     d="m 418.88562,405.53974 c -1.17096,-1.34528 -1.96756,-7.82792 -1.96756,-16.01163 l 0,-13.75117 -7.28157,0 c -4.00486,0 -7.73757,-0.84768 -8.29492,-1.88372 -1.39352,-2.59045 -6.75488,-2.36298 -10.67984,0.4531 -2.59237,1.85999 -3.92166,1.85999 -6.51403,0 -4.11215,-2.95038 -79.61382,-3.37177 -81.18391,-0.4531 -0.55735,1.03604 -2.77085,1.88372 -4.9189,1.88372 -2.14805,0 -4.36155,0.84766 -4.91888,1.88372 -0.55735,1.03605 -3.50869,1.88373 -6.55853,1.88373 -3.04984,0 -6.00117,0.84765 -6.55851,1.88371 -0.55735,1.03605 -2.62995,1.91069 -4.60577,1.94361 -1.97581,0.033 -5.02461,1.30448 -6.77512,2.82559 -1.75051,1.52112 -4.64945,2.76569 -6.44211,2.76569 -3.50838,0 -13.18793,3.19582 -17.81671,5.88241 -1.5659,0.90886 -7.24057,1.65248 -12.61036,1.65248 -5.3698,0 -10.17367,0.76289 -10.67528,1.69533 -1.34332,2.49711 -12.39411,2.07823 -12.42366,-0.47094 -0.0148,-1.23168 -0.67566,-0.98481 -1.53301,0.57226 -1.21637,2.20913 -2.24168,2.31041 -5.30367,0.52394 -2.08769,-1.21798 -10.43631,-2.65009 -18.55248,-3.18234 -8.11616,-0.5323 -20.88346,-1.46979 -28.37175,-2.08336 -9.65101,-0.79077 -14.32572,-0.43798 -16.05587,1.21167 -1.84878,1.76275 -2.90121,1.7983 -4.33888,0.14655 -1.04394,-1.19927 -3.46646,-2.18056 -5.38341,-2.18056 -1.91693,0 -5.21822,-2.11918 -7.33621,-4.70929 -3.97855,-4.86543 -13.54556,-6.60089 -15.57649,-2.82559 -1.41803,2.63599 -11.687727,2.35294 -15.565089,-0.429 -2.639953,-1.8941 -4.091325,-1.72365 -8.018976,0.94186 -5.925178,4.02115 -19.675305,4.30052 -24.061724,0.48889 -1.7505,-1.52111 -4.728519,-2.79262 -6.617778,-2.82559 -1.889284,-0.0329 -4.770504,-1.75524 -6.402744,-3.82732 -1.632228,-2.07211 -3.822034,-3.76745 -4.866255,-3.76745 -1.044198,0 -4.01922,-2.54303 -6.611156,-5.65116 -2.591924,-3.10814 -5.627025,-5.65117 -6.744672,-5.65117 -1.117659,0 -4.01378,-4.6534 -6.435862,-10.34092 -2.422057,-5.68751 -5.118698,-9.83328 -5.992536,-9.21283 -0.873825,0.62047 -3.742305,-1.24228 -6.3744254,-4.13939 -4.202073,-4.62519 -4.7856508,-6.58923 -4.7856508,-16.10625 0,-5.96129 0.7378294,-11.36262 1.6396285,-12.00292 0.9017991,-0.64035 1.6396284,-5.35256 1.6396284,-10.47165 0,-5.11911 0.7378405,-9.30744 1.6396274,-9.30744 0.9017991,0 1.6396409,-3.34066 1.6396409,-7.4237 0,-4.08304 0.737829,-7.9476 1.639628,-8.58792 0.904562,-0.64227 1.639628,-9.08717 1.639628,-18.83722 0,-9.75004 0.735067,-18.19493 1.639628,-18.8372 0.901799,-0.64034 1.639629,-4.50488 1.639629,-8.58792 0,-4.08306 0.737829,-7.42372 1.639628,-7.42372 0.909101,0 1.639628,-4.98618 1.639628,-11.19114 0,-6.15515 0.737841,-11.71505 1.639628,-12.35537 0.980738,-0.69638 1.63964,-13.08006 1.63964,-30.81585 0,-18.84047 0.649899,-30.39826 1.782483,-31.69947 1.28359,-1.47466 1.28359,-2.40212 0,-3.3135 -2.734604,-1.94169 -1.890604,-16.37034 1.328204,-22.70608 1.881624,-3.70373 4.428392,-5.86162 7.390266,-6.26184 2.500157,-0.33782 6.636588,-3.28346 9.258323,-6.593024 4.037363,-5.096575 4.746157,-7.563514 4.787106,-16.661095 0.03046,-6.792265 -0.996216,-12.791013 -2.821288,-16.482562 -2.732719,-5.527439 -2.732719,-6.080198 0,-11.607638 1.578141,-3.192098 2.869354,-9.549657 2.869354,-14.127909 0,-4.578253 0.73783,-8.324088 1.639629,-8.324088 0.901799,0 1.639628,-1.695349 1.639628,-3.767442 0,-2.072093 0.73783,-3.767443 1.639629,-3.767443 0.901799,0 1.639628,-2.119186 1.639628,-4.709301 C 73.770979,2.5493109 72.35767,24.954516 84.662923,8.1187403 85.750204,10.065623 86.576839,9.7561267 88.436422,6.7059498 90.15082,3.89393 92.601159,2.8001661 97.186444,2.8001661 c 3.502816,0 6.795906,0.7939894 7.317946,1.7644247 1.55473,2.8900809 10.93627,7.6541812 15.07275,7.6541812 2.11595,0 3.84717,0.847674 3.84717,1.883722 0,1.036046 2.90779,1.883719 6.46175,1.883719 3.55396,0 6.91776,0.847676 7.4751,1.883722 0.55735,1.036046 4.24652,1.883722 8.19816,1.883722 3.95163,0 7.64079,0.847673 8.19814,1.883719 0.55735,1.036048 4.24651,1.883722 8.19815,1.883722 3.95164,0 7.64081,0.847675 8.19815,1.883722 0.55735,1.036046 3.18331,1.883721 5.83548,1.883721 2.65216,0 4.82212,0.847674 4.82212,1.88372 0,1.036048 3.64562,1.883721 8.10137,1.883721 4.45576,0 8.5574,0.847675 9.11474,1.883722 0.55734,1.036046 2.33211,1.883722 3.94393,1.883722 3.73931,0 12.3226,4.892475 14.94005,8.515812 1.1071,1.532597 2.93898,2.786495 4.07084,2.786495 1.13185,0 2.96701,1.258477 4.07815,2.796628 1.11112,1.538135 5.26687,4.659441 9.23497,6.936238 3.9681,2.276779 8.42851,5.680512 9.91205,7.563837 1.56474,1.986403 4.95965,3.424228 8.08515,3.424228 2.9633,0 5.84383,0.847675 6.40116,1.883721 0.55735,1.036049 4.65899,1.883722 9.11474,1.883722 5.3892,0 8.10062,0.788281 8.09915,2.354652 -0.001,1.680053 2.6125,2.167748 9.12428,1.702299 6.96729,-0.498018 9.87718,0.128096 12.29946,2.64661 4.61491,4.798195 3.92267,7.78071 -2.63577,11.35622 -5.57056,3.036917 -5.95709,3.011749 -9.42789,-0.613736 -5.04353,-5.268334 -8.21003,-6.035724 -10.48773,-2.541611 -1.61884,2.483423 -2.51924,2.591379 -5.30655,0.636265 -1.84626,-1.295058 -8.48816,-2.354652 -14.75974,-2.354652 -6.2716,0 -11.8589,-0.847673 -12.41624,-1.88372 -0.55734,-1.036046 -2.58955,-1.883721 -4.51604,-1.883721 -1.92647,0 -5.52505,-2.225994 -7.99682,-4.946634 -4.53718,-4.994027 -9.01546,-8.3673 -15.77076,-11.879347 -2.02904,-1.054884 -3.68916,-3.210483 -3.68916,-4.79019 0,-2.021911 -1.68413,-2.872204 -5.68884,-2.872204 -3.12885,0 -8.31613,-1.695349 -11.52728,-3.767441 -3.21115,-2.072095 -7.98597,-3.767444 -10.61069,-3.767444 -2.62475,0 -5.22827,-0.847655 -5.78561,-1.883702 -0.55735,-1.036046 -2.77085,-1.88372 -4.91889,-1.88372 -2.14805,0 -4.36155,-0.847675 -4.91889,-1.883722 -0.55735,-1.036046 -4.2465,-1.88372 -8.19814,-1.88372 -3.95165,0 -7.64082,-0.847676 -8.19815,-1.883722 -0.55735,-1.036046 -5.35326,-1.883722 -10.6576,-1.883722 -5.30433,0 -10.10026,-0.847673 -10.6576,-1.883719 -0.55735,-1.036047 -3.10838,-1.883722 -5.66896,-1.883722 -2.5606,0 -8.86357,-2.543023 -14.0066,-5.651163 -5.14302,-3.10816 -10.66136,-5.651165 -12.262958,-5.651165 -1.601598,0 -3.8373,-1.28091 -4.968245,-2.846471 -1.809358,-2.504727 -2.276404,-2.512733 -3.889932,-0.06669 -1.20834,1.831731 -5.468224,2.963056 -12.491278,3.317403 l -10.657596,0.537709 0.51642,5.935284 c 0.28403,3.264413 -0.269341,6.493205 -1.229728,7.175132 -0.960374,0.681907 -1.746133,2.805049 -1.746133,4.718099 0,1.913033 -1.631266,6.989304 -3.625033,11.280608 -2.993758,6.443683 -3.279281,8.43843 -1.639628,11.454796 3.342703,6.149312 2.516808,30.757754 -1.293865,38.552344 -1.803586,3.6892 -3.279256,9.1495 -3.279256,12.13403 0,3.59584 -1.521086,6.91271 -4.508985,9.83225 -3.7343,3.64887 -4.419339,5.66212 -3.987211,11.71801 0.286966,4.02173 -0.266418,8.21772 -1.229728,9.32443 -1.056889,1.21422 -1.751487,11.42493 -1.751487,25.74711 0,14.57985 -0.687542,24.52478 -1.782494,25.78273 -1.283578,1.47467 -1.283578,2.40212 0,3.31351 2.237908,1.589 2.354305,8.57817 0.142817,8.57817 -0.901799,0 -1.639628,4.18834 -1.639628,9.30744 0,5.11909 -0.737842,9.83133 -1.639629,10.47165 -0.901799,0.6403 -1.639628,4.87867 -1.639628,9.41859 0,4.53993 -0.737841,8.7783 -1.639641,9.41861 -0.901787,0.64032 -1.639627,6.20023 -1.639627,12.35537 0,6.20496 -0.73054,11.19114 -1.639629,11.19114 -0.935607,0 -1.639628,5.61412 -1.639628,13.07488 0,7.19117 -0.737829,13.59876 -1.639628,14.23911 -0.9018,0.6403 -1.639629,3.18331 -1.639629,5.65116 0,2.4678 -0.73784,5.01082 -1.639627,5.65116 -3.000542,2.13051 -1.838295,9.86137 1.639627,10.90628 1.961982,0.58945 3.279257,2.5694 3.279257,4.92898 0,2.1691 0.737829,3.94381 1.639628,3.94381 0.9018,0 1.639629,1.69534 1.639629,3.76744 0,2.0721 0.73784,3.76745 1.639627,3.76745 0.9018,0 1.639641,2.54301 1.639641,5.65116 0,3.91181 0.803151,5.65117 2.609439,5.65117 1.435189,0 5.564614,3.79333 9.17651,8.42964 3.611872,4.6363 8.82257,9.72234 11.579315,11.30233 5.62219,3.22225 20.166968,3.88437 21.72455,0.98895 0.557343,-1.03606 3.139769,-1.88373 5.73871,-1.88373 2.598942,0 5.181356,0.84767 5.7387,1.88373 0.557343,1.03605 3.877595,1.88372 7.378347,1.88372 3.500744,0 6.820974,-0.84767 7.378324,-1.88372 0.55735,-1.03606 4.24651,-1.88373 8.19815,-1.88373 3.95164,0 7.64082,0.84767 8.19815,1.88373 0.55735,1.03605 2.88347,1.88372 5.16916,1.88372 2.77688,0 4.44035,1.25006 5.01335,3.76744 0.92616,4.06885 2.95024,4.90245 4.57416,1.88373 1.35805,-2.52451 24.76729,-2.41409 28.91536,0.13638 1.80703,1.11104 8.95239,2.06328 15.8786,2.11605 8.17076,0.0621 13.49244,0.99657 15.15413,2.66055 3.75978,3.76508 17.26645,3.9002 20.81739,0.20825 2.10403,-2.18759 5.84692,-2.95517 13.53938,-2.77652 8.22717,0.19102 12.03323,-0.68519 16.82994,-3.87453 3.51427,-2.33662 8.99541,-4.12135 12.65726,-4.12135 3.55232,0 9.08607,-1.69535 12.29722,-3.76745 3.21114,-2.0721 7.98597,-3.76742 10.61071,-3.76742 2.62473,0 5.22826,-0.84768 5.78559,-1.88373 0.55734,-1.03607 4.24651,-1.88371 8.19815,-1.88371 3.95164,0 7.64081,-0.84768 8.19815,-1.88373 0.64074,-1.19108 19.93361,-1.88372 52.46816,-1.88372 32.53456,0 51.82741,0.69264 52.46815,1.88372 0.55734,1.03605 3.05026,1.88373 5.53979,1.88373 4.79111,0 11.67633,-7.22853 11.67633,-12.25853 0,-1.54619 0.73783,-2.81125 1.63963,-2.81125 0.90179,0 1.63963,-1.50822 1.63963,-3.35161 0,-1.84338 1.47566,-4.57352 3.27925,-6.067 2.25052,-1.86358 3.27927,-4.87637 3.27927,-9.6038 0,-3.78862 1.09144,-7.92907 2.42543,-9.201 3.07748,-2.9343 7.41235,-12.83111 7.41235,-16.92291 0,-1.71908 2.2135,-5.56196 4.91889,-8.53973 2.70538,-2.97781 4.91888,-6.36082 4.91888,-7.51781 0,-1.157 2.58242,-4.97922 5.73871,-8.49384 3.15628,-3.51461 5.73871,-7.39165 5.73871,-8.61561 0,-1.22399 1.14328,-3.3155 2.5406,-4.64782 1.39734,-1.33234 3.9164,-5.88641 5.5979,-10.12019 1.6815,-4.23378 4.96522,-9.75281 7.29717,-12.26451 2.4577,-2.64717 4.23988,-6.62931 4.23988,-9.47368 0,-2.74601 1.44414,-6.10281 3.27926,-7.62239 1.89633,-1.57027 3.27926,-4.87636 3.27926,-7.83955 0,-2.8183 0.73784,-5.64804 1.63964,-6.28835 0.90179,-0.64031 1.63962,-2.67929 1.63962,-4.53107 0,-4.29598 4.25853,-14.15704 7.41237,-17.16416 1.33399,-1.27192 2.4254,-4.62158 2.4254,-7.44369 0,-6.20027 3.69997,-15.16099 8.18597,-19.82518 1.98514,-2.06395 3.29145,-5.80703 3.29145,-9.43125 0,-3.61681 1.30553,-7.36648 3.27927,-9.41861 1.80359,-1.87523 3.27925,-4.97345 3.27925,-6.88499 0,-1.91149 0.73783,-3.47547 1.63963,-3.47547 0.9018,0 1.63963,-2.54304 1.63963,-5.65116 0,-3.10815 0.73784,-5.65117 1.63962,-5.65117 0.90181,0 1.63965,-2.493 1.63965,-5.53999 0,-3.04699 0.73782,-6.06389 1.63963,-6.7042 0.90178,-0.64031 1.63962,-4.08104 1.63962,-7.646066 0,-5.616371 -0.5344,-6.481847 -4.0023,-6.481847 -2.20127,0 -4.45832,0.847675 -5.01567,1.883722 -0.55734,1.036046 -3.1833,1.883724 -5.83546,1.883724 -2.65217,0 -4.82213,0.847669 -4.82213,1.883717 0,1.036048 -1.47567,1.883727 -3.27926,1.883727 -1.80359,0 -3.27925,0.847668 -3.27925,1.883713 0,1.09767 -5.43318,1.88373 -13.02028,1.88373 -7.16115,0 -13.47629,0.84767 -14.03362,1.88372 -0.55735,1.03605 -6.13465,1.88372 -12.39399,1.88372 -6.494,0 -11.38065,0.80883 -11.38065,1.88372 0,2.54539 -12.00566,2.40706 -14.24368,-0.16407 -1.28357,-1.47467 -2.09084,-1.47467 -2.88413,0 -1.3831,2.57099 -7.46664,2.70472 -7.46664,0.16407 0,-1.03604 -2.08488,-1.88372 -4.63308,-1.88372 -2.8346,0 -6.14336,-1.84695 -8.5237,-4.75795 -4.46551,-5.460919 -12.23296,-10.311823 -16.51169,-10.311823 -1.61182,0 -3.38659,-0.847674 -3.94393,-1.88372 -0.55734,-1.036047 -5.39681,-1.883721 -10.75437,-1.883721 -5.40093,0 -9.74101,0.839292 -9.74101,1.883721 0,2.744996 -9.43919,2.311513 -10.25432,-0.470931 -0.54905,-1.874208 -1.20576,-1.865562 -3.21845,0.04238 -1.89417,1.795582 -10.29226,2.268244 -33.46914,1.883721 l -30.9405,-0.513313 0,-5.651164 c 0,-4.603985 0.75957,-5.767992 4.09907,-6.281607 2.25448,-0.346737 4.80002,-1.406331 5.65672,-2.354652 2.04857,-2.267624 7.03957,-2.212487 7.73359,0.08533 0.79128,2.620011 37.28907,2.882659 39.55044,0.28463 2.4665,-2.833681 22.93885,-2.699861 25.43356,0.166145 1.53031,1.758134 1.96755,1.758134 1.96755,0 0,-1.580857 4.19018,-2.260466 13.93686,-2.260466 8.19814,0 13.93685,0.775641 13.93685,1.883722 0,1.036046 1.31279,1.883722 2.9173,1.883722 1.6045,0 3.98088,1.695349 5.28085,3.767441 1.29997,2.072093 3.44431,3.767443 4.76527,3.767443 1.32094,0 4.02756,1.754798 6.01473,3.899567 2.97997,3.216321 5.70244,3.89201 15.53762,3.856277 6.55851,-0.02372 12.38067,-0.891132 12.93811,-1.927367 0.55745,-1.036216 6.43648,-1.864374 13.06449,-1.840301 6.62805,0.02411 12.84061,-0.863442 13.80573,-1.9722 0.9651,-1.108777 5.62169,-2.015958 10.34799,-2.015958 4.72631,0 9.04929,-0.847674 9.60663,-1.883721 0.55735,-1.036065 4.65897,-1.88372 9.11474,-1.88372 7.00828,0 8.10137,-0.508324 8.10137,-3.767444 0,-3.337746 1.09309,-3.767441 9.58366,-3.767441 13.18477,0 15.01079,2.595994 15.01079,21.340184 0,8.377866 -0.68903,14.450516 -1.63963,14.450516 -0.9018,0 -1.63962,1.69535 -1.63962,3.76744 0,2.0721 -0.73785,3.76744 -1.63964,3.76744 -0.90179,0 -1.63964,4.10701 -1.63964,9.12665 0,6.73434 -0.85956,10.02034 -3.27925,12.53614 -1.80358,1.87521 -3.27926,4.85637 -3.27926,6.62476 0,1.76839 -2.95134,9.80703 -6.55853,17.86363 -3.60718,8.05658 -6.5585,16.92651 -6.5585,19.71093 0,2.96446 -1.69877,6.89608 -4.09907,9.48675 -2.25451,2.43327 -4.09909,5.52211 -4.09909,6.86407 0,1.34197 -1.47567,5.45837 -3.27926,9.14755 -1.80359,3.68918 -3.27925,8.24581 -3.27925,10.12582 0,1.88001 -1.47567,4.95243 -3.27927,6.82767 -1.80359,1.87521 -3.27926,4.84321 -3.27926,6.59556 0,3.76023 -4.45845,14.51796 -6.66667,16.08587 -0.84705,0.60145 -2.97731,4.71806 -4.73388,9.14803 -1.7566,4.42994 -4.33706,9.14454 -5.7344,10.47688 -1.39732,1.33232 -2.54062,3.44237 -2.54062,4.68895 0,1.24661 -1.92285,4.32161 -4.27303,6.83331 -2.35016,2.5117 -4.94146,6.55604 -5.75844,8.98742 -0.81697,2.43133 -2.76798,4.80596 -4.33556,5.27692 -3.3168,0.99651 -6.94814,8.92297 -6.94814,15.16633 0,2.38357 -0.73784,4.33376 -1.63963,4.33376 -0.9018,0 -1.63964,1.69535 -1.63964,3.76745 0,2.07209 -0.73783,3.76744 -1.63963,3.76744 -0.90178,0 -1.63962,1.69535 -1.63962,3.76744 0,2.0721 -0.73784,3.76745 -1.63963,3.76745 -0.9018,0 -1.63963,1.98894 -1.63963,4.41988 0,5.19436 -3.95913,14.92461 -7.41236,18.21719 -3.68251,3.51119 -2.92733,7.50245 1.41953,7.50245 5.37525,0 10.49749,6.76561 8.23799,10.88094 -2.29683,4.18328 -10.42864,9.53171 -14.75154,9.70232 -4.95808,0.19568 -8.14871,4.98869 -5.63617,8.46682 1.34082,1.8561 1.43281,3.73494 0.29978,6.12209 -0.89909,1.89427 -2.06226,5.77521 -2.58481,8.62433 -0.80273,4.37679 -1.78445,5.18023 -6.32963,5.18023 -2.95874,0 -6.26495,-1.01721 -7.34709,-2.26046 z"
     id="path3049"
     inkscape:connector-curvature="0"
     sodipodi:nodetypes="cscssssssssscssssscssssscsssssssssssscsscssssscsssssssssscssssssccsssssssssssssssssssssssscsssssssssssssssssssssssssscscscssssssssssssssssssscscsssssssssssssssssssscssssssssssssssssssssssssssssssssssssssssssssssssssssssscssssssscsscssscscsssssssccsssssssssssssssssssssssssssssssssssssssssssscc" />
</svg>
