<?xml version="1.0" encoding="UTF-8" standalone="no"?>
<!-- Created with Inkscape (http://www.inkscape.org/) -->

<svg
   xmlns:dc="http://purl.org/dc/elements/1.1/"
   xmlns:cc="http://creativecommons.org/ns#"
   xmlns:rdf="http://www.w3.org/1999/02/22-rdf-syntax-ns#"
   xmlns:svg="http://www.w3.org/2000/svg"
   xmlns="http://www.w3.org/2000/svg"
   xmlns:sodipodi="http://sodipodi.sourceforge.net/DTD/sodipodi-0.dtd"
   xmlns:inkscape="http://www.inkscape.org/namespaces/inkscape"
   width="156.58334"
   height="551.49792"
   id="svg2"
   version="1.1"
   inkscape:version="0.48.2 r9819"
   sodipodi:docname="buffalo.svg">
  <defs
     id="defs4" />
  <sodipodi:namedview
     id="base"
     pagecolor="#ffffff"
     bordercolor="#666666"
     borderopacity="1.0"
     inkscape:pageopacity="0.0"
     inkscape:pageshadow="2"
     inkscape:zoom="0.74"
     inkscape:cx="-127.78331"
     inkscape:cy="219.54814"
     inkscape:document-units="px"
     inkscape:current-layer="layer1"
     showgrid="false"
     inkscape:window-width="1187"
     inkscape:window-height="726"
     inkscape:window-x="101"
     inkscape:window-y="12"
     inkscape:window-maximized="0"
     inkscape:showpageshadow="false"
     showborder="true"
     fit-margin-top="0"
     fit-margin-left="0"
     fit-margin-right="0"
     fit-margin-bottom="0" />
  <metadata
     id="metadata7">
    <rdf:RDF>
      <cc:Work
         rdf:about="">
        <dc:format>image/svg+xml</dc:format>
        <dc:type
           rdf:resource="http://purl.org/dc/dcmitype/StillImage" />
        <dc:title />
      </cc:Work>
    </rdf:RDF>
  </metadata>
  <g
     inkscape:label="Layer 1"
     inkscape:groupmode="layer"
     id="layer1"
     transform="translate(-324.84474,-258.37871)">
    <path
       style="fill:#000000"
       d="m 409.58698,258.39698 c -1.6767,-0.18661 -3.74348,1.0503 -7.7089,3.99836 -7.61348,5.66011 -10.53173,11.78903 -7.95295,16.79496 0.8824,1.71293 0.33388,5.6749 -1.38637,9.79063 -2.19922,5.26149 -4.57859,7.33368 -10.02841,8.84069 -18.43004,-12.8551 -25.67443,44.79471 -45.04594,50.15116 -2.26606,-1.73895 -2.78793,-0.77638 -3.68948,6.66666 -0.61245,5.0564 -1.16385,7.24513 -2.31365,7.89683 2.37639,3.38893 4.83778,6.73101 7.13656,10.16563 1.64363,-11.5823 2.75925,-14.28511 7.62989,-20.53628 11.72033,-9.77718 14.61927,-19.69039 39.4696,-21.56946 3.16346,-0.10923 5.10722,0.68063 4.80103,1.95608 -0.2841,1.18334 -1.40439,1.94462 -2.49308,1.68326 -1.29364,-0.31057 -2.227,2.46934 -2.73667,8.05237 -0.66662,7.30288 -1.38021,8.62326 -4.73619,9.01855 -7.70746,0.90781 -9.50554,4.26677 -11.21927,20.89575 -0.87821,8.52167 -0.8391,18.16068 0.0944,21.42658 1.40324,4.90913 1.09064,6.80869 -1.83742,10.99998 -5.82258,8.33466 -11.31079,23.04241 -10.3665,27.78521 0.58008,2.91357 -0.004,5.08563 -1.82494,6.66436 -2.57195,2.22993 -3.78645,8.57057 -3.48252,18.25387 0.0805,2.56386 -0.68546,4.27048 -1.79678,4.00368 -1.06818,-0.25646 -2.59984,2.26179 -3.40375,5.61041 -1.29393,5.38959 -0.85111,6.18211 3.81608,6.86169 8.22728,1.19794 10.18717,-0.26536 9.26615,-6.87044 -0.64097,-4.5968 -0.0153,-6.29557 3.18403,-8.84484 2.17573,-1.73369 6.33026,-7.27475 9.22278,-12.31216 2.89252,-5.03741 5.86289,-9.00515 6.61775,-8.82392 0.75487,0.18123 1.73841,4.43917 2.19567,9.46149 0.45729,5.02235 2.06304,9.42977 3.56308,9.78978 1.49976,0.36005 3.89839,1.53866 5.31512,2.62583 1.91092,1.46642 3.26513,0.37308 5.27308,-4.29391 1.48864,-3.45999 3.26815,-6.15718 3.9763,-5.98717 0.70813,0.17001 2.99164,4.66172 5.0581,9.988 l 3.75148,9.67432 -10.51549,4.57795 c -8.27926,3.58945 -11.14805,6.06256 -13.44413,11.55583 -1.60618,3.84278 -4.2563,7.23158 -5.85676,7.52825 -1.60046,0.29674 -3.26914,2.10464 -3.7294,4.02176 -0.46025,1.9171 -3.98147,7.47187 -7.82013,12.3597 -7.84246,9.98591 -13.59608,26.38201 -10.79335,30.76796 0.98896,1.54758 1.4095,4.43659 0.93178,6.42631 -0.47768,1.98975 1.57688,7.75743 4.5389,12.82007 l 5.37662,9.19674 -4.20053,13.61433 c -3.43847,11.17414 -3.82367,15.03087 -2.17853,21.52364 1.77788,7.01664 -0.22242,24.11435 -2.75117,23.50726 -0.53366,-0.12817 -4.35585,-3.48292 -8.49083,-7.46978 -8.68632,-8.37524 -12.03006,-17.80372 -9.57478,-26.91641 1.90329,-7.06402 -2.36176,-19.65696 -7.03125,-20.77801 -4.13194,-0.99198 -4.88139,5.23294 -1.70272,14.0533 1.53173,4.25031 2.28889,12.29183 1.69062,17.8568 -0.90166,8.38708 -0.2178,11.05407 3.95159,15.66791 3.12405,3.45701 5.53193,9.48842 6.3643,15.92574 0.73711,5.70047 2.80914,11.86397 4.5923,13.66845 4.95375,5.01298 2.98182,8.31345 -3.12662,5.25916 -3.24975,-1.62491 -5.00343,-1.72967 -4.6261,-0.27505 0.33461,1.28997 3.84199,3.10778 7.79946,4.05788 3.95743,0.95009 8.42494,2.9 9.9168,4.34121 5.7947,5.59805 20.13259,12.6333 31.68408,15.54477 13.21936,3.33192 16.12279,5.72903 9.64671,7.87584 -2.30868,0.76533 -5.63657,2.43444 -7.41593,3.71518 -1.77941,1.28074 -7.20325,3.528 -12.0349,5.01665 -5.01977,1.54658 -10.26637,4.94095 -12.25025,7.92159 -1.90947,2.86893 -4.76828,6.42945 -6.36119,7.88924 -4.10093,3.75813 -12.25887,30.16196 -12.27815,39.76365 -0.009,4.43146 2.2285,13.16069 4.95653,19.38006 2.72797,6.21935 4.73606,12.2664 4.45375,13.44235 -0.28232,1.17596 1.76339,7.01403 4.57047,12.95619 2.80705,5.94214 4.93899,11.55505 4.71758,12.4773 -0.22143,0.92227 0.80206,1.96014 2.30316,2.32053 1.50111,0.36038 3.07531,-0.76185 3.4935,-2.50364 0.63568,-2.64785 6.5775,-3.14886 8.62634,-0.72501 0.32561,0.38523 2.73445,-0.68024 5.32155,-2.35398 3.15761,-2.04354 6.05305,-2.25539 8.80867,-0.68125 2.5684,1.46721 5.15278,1.41785 6.94164,-0.13317 3.88816,-3.37116 3.10899,-19.54412 -1.2136,-25.1983 -3.74813,-4.90274 -3.49583,-6.97444 1.16157,-10.32665 3.03111,-2.18173 4.02804,-1.43427 8.47265,6.34058 5.70621,9.98177 5.965,10.10917 16.86056,8.48291 6.41859,-0.95806 8.49515,-2.41745 10.70047,-7.49023 2.71942,-6.25544 1.8354,-10.84662 -1.38633,-7.21036 -0.92653,1.04564 -2.27857,1.22975 -2.99013,0.40691 -0.71155,-0.82278 -2.28473,0.28764 -3.48618,2.47326 -1.20148,2.18566 -2.94436,3.79244 -3.87767,3.56834 -0.93328,-0.22404 -2.34065,-0.29044 -3.13959,-0.17522 -0.79896,0.11528 -0.97957,-2.5722 -0.39699,-5.97657 0.58254,-3.40439 0.51057,-9.84241 -0.17154,-14.2783 -1.13575,-7.38551 -1.80724,-8.0857 -7.72621,-8.37891 -5.57462,-0.27615 -6.30569,-0.90936 -5.41706,-4.61074 0.56669,-2.36047 3.14212,-6.46269 5.72074,-9.10354 2.57862,-2.64085 5.65296,-6.42538 6.84138,-8.4167 1.42364,-2.38504 3.0877,-2.89651 4.8669,-1.53117 1.48509,1.13964 3.65235,1.00742 4.82551,-0.28768 1.53841,-1.69837 1.88452,-1.24552 1.22022,1.6106 -0.70633,3.03626 -0.22718,3.55393 2.03699,2.2245 4.33118,-2.54317 15.28534,-0.55171 15.48869,2.81863 0.1091,1.8092 -0.75167,2.13205 -2.39456,0.87133 -2.99875,-2.30119 -4.39042,1.58621 -3.67762,10.36538 0.76611,9.43584 5.34199,8.36285 9.36304,-2.18716 4.43136,-11.62666 6.63921,-10.32244 9.3819,5.4983 2.86422,16.52186 4.06424,18.4666 8.20355,13.2178 2.75612,-3.49483 2.98136,-4.83562 1.25127,-7.21987 -1.16462,-1.60498 -1.6291,-3.79086 -1.0462,-4.87903 1.43552,-2.67983 -1.03213,-9.00925 -5.11013,-13.11789 -2.21967,-2.23639 -3.0761,-6.3931 -2.53337,-12.33857 0.71578,-7.84102 0.28865,-8.90718 -3.39299,-8.62411 -2.31508,0.17806 -6.13349,0.4407 -8.49871,0.59494 -3.02702,0.19749 -5.31159,-1.6374 -7.66803,-6.21169 -4.44484,-8.62839 -3.47018,-11.36784 6.27687,-17.71156 10.4867,-6.82513 20.9039,-21.8809 15.95131,-23.06991 -1.00074,-0.24026 -2.32604,1.65675 -2.93937,4.21144 -1.29967,5.41352 -3.33744,2.39349 -3.48197,-5.17459 -0.0682,-3.56778 0.63967,-4.8921 2.45196,-4.45699 1.41016,0.33854 4.45514,-2.8882 6.73918,-7.18788 17.71697,-16.0324 9.87101,-16.29903 10.64458,-29.20453 -5.44374,-9.56902 -1.54771,-17.1836 -3.22221,-17.40431 -2.99588,-0.692 -4.2164,-3.77347 -8.63847,-0.11075 -3.32692,-3.37142 -11.86531,-0.95755 -14.45568,-1.5634 -5.18453,-1.36225 0.43555,-2.46589 -7.34552,-3.82755 -8.23839,8.9172 -0.9261,7.26605 -9.29054,15.96845 0.11525,2.05421 -2.79839,8.55101 -7.46492,13.10489 -4.00146,3.90488 -27.98747,13.69959 -32.89043,11.12005 -5.30997,-2.7937 -8.87124,-8.16088 -7.94958,-11.99985 0.32968,-1.37323 -0.97875,-2.23249 -3.05801,-1.98755 -5.37693,0.63332 -20.49728,-28.13971 -18.70609,-35.6005 1.56128,-6.50315 9.04378,-16.85445 11.73307,-16.20882 1.03371,0.24818 4.24182,3.94134 7.13305,8.17224 6.83682,10.00461 14.83926,13.76636 23.86764,11.28999 5.11693,-1.40349 7.31031,-3.27524 8.21112,-7.02733 0.67683,-2.81927 3.36631,-6.77521 5.96626,-8.78751 2.59994,-2.01231 5.00123,-4.9018 5.36682,-6.42466 0.84014,-3.49934 1.81285,-3.23538 5.94969,1.5891 1.83144,2.1358 5.48213,5.04368 8.11772,6.48035 4.57715,2.49503 4.85147,2.29129 5.893,-4.46646 0.99525,-6.45784 0.58884,-7.12563 -4.5903,-7.78674 -4.1842,-0.53412 -6.3991,-2.40297 -8.44222,-7.13673 -1.52372,-3.53037 -3.60269,-6.11162 -4.60869,-5.70219 -1.00601,0.40943 -2.49525,-0.89148 -3.31683,-2.9174 -0.82157,-2.02592 -2.74109,-4.00044 -4.2551,-4.3639 -4.54124,-1.09026 -8.47026,-12.12997 -6.91223,-19.39967 1.38398,-6.45759 1.68247,-6.62239 6.67817,-3.98871 6.06327,3.19654 9.95144,0.3348 8.26575,-6.05005 -0.86684,-3.28326 0.51078,-5.6647 6.85499,-11.82007 4.37377,-4.24359 8.37709,-9.45889 8.88848,-11.58899 1.23969,-5.16368 6.5214,-5.88404 12.09662,-1.65944 2.4938,1.88965 7.26819,3.43917 10.61335,3.44789 5.84765,0.0153 6.01073,-0.15712 3.58236,-4.34631 -3.23303,-5.5773 -24.95586,-12.30929 -27.16057,-8.41682 -0.79367,1.40121 -3.23679,3.87089 -5.45915,5.47049 -5.19342,3.73803 -21.71206,-0.65184 -21.38966,-5.68154 0.29086,-4.53864 12.26373,-14.34596 16.3225,-13.37154 1.84103,0.44199 4.86258,-0.27136 6.67799,-1.57843 1.81544,-1.30671 5.72544,-2.10746 8.72246,-1.7946 4.25634,0.44425 5.54357,-0.38706 5.86134,-3.79918 0.65902,-7.0762 -1.49742,-9.32056 -6.09276,-6.34772 -2.30375,1.49043 -7.27267,3.13563 -11.03199,3.6505 -3.75934,0.5148 -8.40549,1.8882 -10.34766,3.07562 -1.94213,1.18744 -6.36995,2.13434 -9.82613,2.1081 -5.5334,-0.042 -6.07397,-0.50439 -4.64651,-4.07223 0.89162,-2.22842 0.80788,-6.03472 -0.16223,-8.42697 -0.99626,-2.45675 -0.63139,-10.46745 0.8206,-18.41088 1.81585,-9.9338 1.84748,-15.56396 0.13878,-19.18518 -1.42434,-3.01856 -1.59236,-6.3342 -0.40902,-8.06842 3.82793,-5.60993 6.79058,-15.79372 5.14768,-17.69343 -2.12192,-2.45353 -0.13016,-10.84443 3.13576,-13.19502 3.29651,-2.37276 1.2839,-10.37325 -3.71586,-14.77571 -2.15215,-1.89504 -3.2155,-5.07972 -2.58111,-7.72217 0.65372,-2.72297 0.0842,-4.31916 -1.44004,-4.04159 -1.3835,0.25199 -4.27246,-0.85352 -6.44311,-2.47885 8.45078,-3.91768 13.02837,-13.91564 21.43401,-17.92922 2.65052,-1.07874 3.07061,-2.76692 1.86511,-7.23321 -0.77321,-2.86439 -1.50392,-3.09639 -4.49964,-1.33735 -6.41425,6.07377 -10.23032,-16.88634 -10.03607,-18.70341 0.18278,-0.76132 1.59865,-1.09455 3.13117,-0.72662 1.5325,0.36794 3.60929,-0.68164 4.64696,-2.35526 1.45457,-2.34605 3.40048,-2.36809 8.43546,-0.0638 5.99603,2.74413 6.6299,2.58958 7.69051,-1.91381 0.63533,-2.69771 2.15461,-6.66784 3.37362,-8.83146 3.91457,-6.94795 0.2165,-12.25875 -11.37084,-16.35641 -18.47294,-6.53262 -19.39946,-6.97378 -22.7142,-10.33816 -1.04643,-1.06209 -1.90614,-1.67989 -2.91217,-1.79186 z m -4.27184,90.21408 c 0.21361,0.036 0.41703,0.095 0.60773,0.14586 3.30481,0.88589 3.15326,4.17549 0.98944,15.82448 -1.66547,8.96623 -2.72783,11.49327 -4.73269,11.01192 -2.69741,-0.64759 -2.55354,-3.42046 0.7778,-14.88597 1.75251,-6.0317 1.41529,-6.92339 -2.84852,-7.94705 -5.84597,-1.4035 -3.76341,-4.41917 2.96126,-4.30258 0.86007,0.0149 1.60419,0.0451 2.24498,0.15325 z m -76.76219,287.07465 c -0.49316,-0.14348 -0.92381,-0.17146 -1.24343,-0.0414 -3.83838,1.5622 -3.06163,4.82484 1.41193,5.89886 2.44279,0.58644 4.71768,2.12198 5.05738,3.43168 0.79149,3.0516 3.89798,3.8435 4.54339,1.15506 0.59397,-2.47416 -6.3172,-9.43958 -9.76927,-10.44419 z"
       id="path3050"
       inkscape:connector-curvature="0"
       sodipodi:nodetypes="csssccsccccsssssssssssssssssssssscccscsssscccsssssssssssssssscssssssssssscssssssscssscssssscsscsssssssssssscsssssscccccccssssssssssscsssssssssssssssssssscsssssssssssssssccsccscsssssscssscssssccscsc"
       inkscape:export-xdpi="90"
       inkscape:export-ydpi="90" />
  </g>
</svg>
